<svg xmlns="http://www.w3.org/2000/svg" width="100" height="80" viewBox="0 0 100 80">
    <g>
        <g>
            <path fill="#27DDB1" d="M49.529 59.466c0-5.91 3.624-9.4 6.995-11.377q.736.565 1.543 1.072a23.253 23.253 0 0 0 2.281 1.251c-2.853 1.206-6.995 3.851-6.995 9.054zm29.569 0c0-11.036-12.633-13.65-12.669-13.658s-9.081-1.884-9.612-9.242l2.618 1.155a.733.733 0 0 0 .924-1.086l-4.788-8.54a.785.785 0 0 0-1.371.005l-4.805 8.57c-.32.571.195 1.392.879 1.078l2.715-1.178C53.5 47.029 65.6 49.536 65.637 49.543s9.637 2 9.637 9.923zM67.632 43.419a9.036 9.036 0 0 0 4.179-6.853l-2.618 1.155a.733.733 0 0 1-.925-1.086l4.789-8.54a.785.785 0 0 1 1.372.008l4.805 8.57c.32.571-.195 1.392-.879 1.078l-2.714-1.178a12.085 12.085 0 0 1-3.883 8.386 22.754 22.754 0 0 0-4.126-1.54z" transform="translate(-698 -4122) translate(819.054 4094.205) translate(-135.693 32.885)"/>
        </g>
        <g>
            <g>
                <path fill="#27DDB1" d="M95 10H5a5 5 0 0 0-5 5v70a5 5 0 0 0 5 5h90a5 5 0 0 0 5-5V15a5 5 0 0 0-5-5zm0 75H5V35h90zm0-55H5V15h90zm-10-7.5a2.5 2.5 0 1 1 2.5 2.5 2.5 2.5 0 0 1-2.5-2.5zm-10 0a2.5 2.5 0 1 1 2.5 2.5 2.5 2.5 0 0 1-2.5-2.5zm-10 0a2.5 2.5 0 1 1 2.5 2.5 2.5 2.5 0 0 1-2.5-2.5z" transform="translate(-698 -4122) translate(698 4112)"/>
            </g>
        </g>
    </g>
</svg>
