<svg xmlns="http://www.w3.org/2000/svg" width="73.263" height="89.795" viewBox="0 0 78.263 94.795">
    <g>
        <g>
            <g>
                <g>
                    <path fill="none" stroke="#27DDB1" stroke-miterlimit="10" stroke-width="5px" d="M64.751 85.648S28.121 71 28.121 53.089V4.247l36.63-8.141 36.633 8.141v48.842c0 17.911-36.633 32.559-36.633 32.559z" transform="translate(-411.524 -4159.338) translate(94.024 -1008.1) translate(320 5170) translate(-28.121 3.894)"/>
                </g>
            </g>
        </g>
        <path fill="#27DDB1" d="M53.6 6.641l21.568-25.158a3.593 3.593 0 0 0-.55-5.053 3.593 3.593 0 0 0-4.906.381L51.063-1.435l-8.094-10.793a3.594 3.594 0 0 0-5.032-.719 3.594 3.594 0 0 0-.719 5.032L48 6.461A3.577 3.577 0 0 0 50.757 7.9h.119A3.585 3.585 0 0 0 53.6 6.641z" transform="translate(-411.524 -4159.338) translate(394.425 4214.902)"/>
    </g>
</svg>
