<?xml version="1.0" encoding="utf-8"?>
<!-- Generator: Adobe Illustrator 25.2.1, SVG Export Plug-In . SVG Version: 6.00 Build 0)  -->
<svg version="1.1" id="Layer_1" xmlns="http://www.w3.org/2000/svg" xmlns:xlink="http://www.w3.org/1999/xlink" x="0px" y="0px"
	 viewBox="0 0 70.5 80" style="enable-background:new 0 0 70.5 80;" xml:space="preserve">
<style type="text/css">
	.st0{fill:#27DDB1;}
</style>
<g>
	<path class="st0" d="M2.5,23h59.4L48.4,36.6c-1,1-1,2.6,0,3.5c0.5,0.5,1.1,0.7,1.8,0.7s1.3-0.2,1.8-0.7l17.8-17.8c1-1,1-2.6,0-3.5
		L51.9,0.9c-1-1-2.6-1-3.5,0c-1,1-1,2.6,0,3.5L61.9,18H2.5C1.1,18,0,19.1,0,20.5S1.1,23,2.5,23z"/>
	<path class="st0" d="M68,57.2H8.5l13.6-13.6c1-1,1-2.6,0-3.5c-1-1-2.6-1-3.5,0L0.7,57.9C0.3,58.4,0,59,0,59.7s0.3,1.3,0.7,1.8
		l17.8,17.8c0.5,0.5,1.1,0.7,1.8,0.7s1.3-0.2,1.8-0.7c1-1,1-2.6,0-3.5L8.5,62.2H68c1.4,0,2.5-1.1,2.5-2.5S69.3,57.2,68,57.2z"/>
</g>
</svg>
