<svg xmlns="http://www.w3.org/2000/svg" width="59.642" height="89.463" viewBox="0 0 59.642 89.463">
    <g>
        <path fill="#27DDB1" d="M64.114 14.056a2.485 2.485 0 0 0-1.592.969L26.506 62.209a2.484 2.484 0 0 0 1.979 4h23.132l-5.706 34.34a2.484 2.484 0 0 0 4.463 1.9L85.15 55.264a2.483 2.483 0 0 0-2.018-3.958H61.2l5.744-34.38a2.483 2.483 0 0 0-2.833-2.87zm-3.687 11.912l-4.579 27.395a2.482 2.482 0 0 0 2.02 2.873 2.43 2.43 0 0 0 .424.037H78.2L52.509 91.117l4.5-27.007a2.484 2.484 0 0 0-2.066-2.84 2.584 2.584 0 0 0-.379-.031H33.492l26.935-35.271z" transform="translate(-25.992 -14.026)"/>
    </g>
</svg>
