<svg xmlns="http://www.w3.org/2000/svg" width="80" height="80" viewBox="0 0 80 80">
    <g>
        <path fill="#27DDB1" d="M80.5 2.5h-76a2 2 0 0 0-2 2v16a2 2 0 0 0 .152.752 1.7 1.7 0 0 0 .172.268 1.735 1.735 0 0 0 .212.34L30.5 51.288V80.5a2 2 0 0 0 2 2h20a2 2 0 0 0 2-2V51.288l27.464-29.424a1.735 1.735 0 0 0 .212-.34 1.7 1.7 0 0 0 .172-.268 2.04 2.04 0 0 0 .152-.756v-16a2 2 0 0 0-2-2zm-2 4v12h-72v-12zM51.036 49.136A2 2 0 0 0 50.5 50.5v28h-16v-28a2 2 0 0 0-.536-1.364L9.1 22.5h66.8z" transform="translate(-2.5 -2.5)"/>
    </g>
</svg>
