<?xml version="1.0" encoding="utf-8"?>
<!-- Generator: Adobe Illustrator 25.2.1, SVG Export Plug-In . SVG Version: 6.00 Build 0)  -->
<svg version="1.1" id="Layer_1" xmlns="http://www.w3.org/2000/svg" xmlns:xlink="http://www.w3.org/1999/xlink" x="0px" y="0px"
	 viewBox="0 0 91.2 80" style="enable-background:new 0 0 91.2 80;" xml:space="preserve">
<style type="text/css">
	.st0{fill:#27DDB1;}
</style>
<g>
	<path class="st0" d="M84.4,0H6.7C3,0,0,3,0,6.7v49.1c0,3.7,3,6.7,6.7,6.7h37.8V75H24.4c-1.4,0-2.5,1.1-2.5,2.5S23,80,24.4,80h45.4
		c1.4,0,2.5-1.1,2.5-2.5S71.1,75,69.7,75H49.6V62.5h34.9c3.7,0,6.7-3,6.7-6.7V6.7C91.2,3,88.1,0,84.4,0z M86.2,55.8
		c0,1-0.8,1.7-1.7,1.7H6.7c-1,0-1.7-0.8-1.7-1.7V6.7C5,5.8,5.8,5,6.7,5h77.7c1,0,1.7,0.8,1.7,1.7V55.8z"/>
	<path class="st0" d="M60.5,29.2L39,15.8c-0.8-0.5-1.7-0.5-2.5-0.1c-0.8,0.4-1.3,1.3-1.3,2.2v26.7c0,0.9,0.5,1.7,1.3,2.2
		c0.4,0.2,0.8,0.3,1.2,0.3c0.5,0,0.9-0.1,1.3-0.4l21.5-13.3c0.7-0.5,1.2-1.3,1.2-2.1S61.3,29.6,60.5,29.2z M40.2,40.1V22.4l14.3,8.8
		L40.2,40.1z"/>
</g>
</svg>
